<svg xmlns="http://www.w3.org/2000/svg" viewBox="0 0 512 512"><style>.st0{fill:#fff}.st1{fill:#001c2f}</style><path class="st0" d="M378.7 161.2c-.4.3-.7.4-1 .4-.5 0-1.3-.3-1.7-1.7-1.2-3.9-.7-21.3 16.4-48.7 14-22.5 43.1-57.4 102.5-97.2-53.8 2.4-97.6 12.5-130.2 30-17.3 9.3-30.6 20.3-39.5 32.6-1 1.3-1.2 1.7-1.8 1.7-.6 0-1-.4-1-1-.7-10 1.4-24 5.6-37.6 3.3-10.6 7.1-18.7 10.6-22.9-14.3 3.4-56.9 19-87.4 38.6-32.9 21.2-52 54.5-52.5 57.6 0 .5-.1 1.4-1.1 1.4h-.7l-.3-.6c-.4-.8-.3-11.4-.2-16.9.2-9.4.7-13.8 1.1-15.9-7.5 2.8-37.5 15.9-64.7 32.4-27.8 16.8-51.8 37.8-54 40.2-.1 4.7 17 60 34.2 113.1.1.4.4.6.8.6 0 0 6.5 0 6.8-.2l-.9 14.9-2 6.8.9 14.3c-10.8 20.7-11.1 29.4-11.1 54.9 0 19.1 3.1 36.8 9.3 52.8 6.2 16 15.6 30.7 27.9 43.6 12.5 13 26.6 23 41.9 29.5 15.3 6.5 32.1 9.8 50.1 9.8 18.1 0 35.1-3.4 50.7-10.2 15.6-6.8 30.1-17.1 43.1-30.7 13.1-13.6 23.1-28.9 29.7-45.4 6.6-16.6 9.9-34.9 9.9-54.5-.6-24.9-5.5-47.1-14.4-66.1l-.1-.2-4.7-9.1 1.1-12s8.2-.3 9.2-.9c1.6-2.9 16-29.4 31.5-55.9 9.7-16.4 17.9-29.7 24.4-39.4 7.8-11.5 12-16.3 14.6-18.4-13 1.6-50 7.8-53 10.3z" id="Layer_2"/><g id="Layer_1"><path class="st1" d="M356.3 285.8c1.4 10.2 2.2 20.7 2.2 31.4 0 90.8-53.1 164.4-118.5 164.4h-1.1c-.2 0-.5-.1-.7-.1-64.7-1.3-116.8-74.4-116.8-164.4 0-10.3.7-20.3 2-30-11.1 21-16.8 44.5-16.8 70.9 0 38.5 12.5 70.9 37.5 97.2 25.3 26.4 56.2 39.6 92.7 39.6 36.6 0 68.1-13.7 94.5-41.2 26.6-27.5 39.9-61 39.9-100.6-.7-25.5-5.7-47.9-14.9-67.2z"/><path class="st1" d="M201.5 394.8l6.4-2.7s.9.2 1 .4c5.1 10.6 14.6 17.6 25.9 20.4 12 2.9 22.5 1 31.8-6 .2-.2 1.3.1 1.3.1l5 5.7s.1 1.1-.2 1.3c-11.4 10.1-27 12.4-40.4 9.1-13.4-3.3-25.7-12.9-31.3-27.3-.1-.2.5-1 .5-1zM307.9 256c-.9.1-1.8-.2-2.7-.7-5.5-3.7-19.4-6.1-30.6-3.9-2.4.5-4.6-1-5.1-3.3s1-4.6 3.3-5.1c12.3-2.5 29-.2 37 5.1 2 1.3 2.5 4 1.2 5.9-.6 1.2-1.8 1.9-3.1 2zm-143.8 0c.9.1 1.8-.2 2.7-.7 5.5-3.7 19.4-6.1 30.6-3.9 2.4.5 4.6-1 5.1-3.3s-1-4.6-3.3-5.1c-12.3-2.5-29-.2-37 5.1-2 1.3-2.5 4-1.2 5.9.5 1.2 1.8 1.9 3.1 2zM374 280.3c0-3.3-11.5-6.6-44.7-7.7-33.2-1.1-50.8 2.6-89.5 15.1-38.7-12.5-56.3-16.2-89.5-15.1-33.2 1.1-44.7 4.4-44.7 7.7s-.9 16.2.6 17c1.5.7 5.4 1.1 8.8 13.6 3.3 12.5 6.7 37.8 22.1 44.1 13.1 5.3 66.5 10.6 77.5-4.1 12.1-16 13.1-36.7 16.5-43.3 3.3-6.6 8.8-6.3 8.8-6.3s5.5-.4 8.8 6.3c3.3 6.6 4.4 27.3 16.5 43.3 11 14.6 64.3 9.4 77.5 4.1 15.3-6.2 18.7-31.5 22.1-44.1 3.3-12.5 7.2-12.9 8.8-13.6 1.3-.8.4-13.7.4-17zm-150.5 21.8v.6c-1.1 21.8-3.8 47-26.2 51.6-22.7 4.6-52.7.4-61-7.7-11-10.7-14.2-47-14.2-47-.2-1.5-.2-3-.1-4.3 1.1-13.4 15.3-17.9 37.7-17.4 24.6.4 64.9 2.2 63.8 24.2zm134-2.6s-3.2 36.3-14.2 47c-8.3 8.1-38.4 12.4-61 7.7-22.3-4.5-25.1-29.5-26.2-51.2v-1c-1.1-21.9 39.3-23.8 63.9-24.3 22.6-.5 36.9 4.1 37.7 17.8 0 1.3 0 2.6-.2 4z"/><path class="st1" d="M291 319l3.2-14.6c-.9-.2-1.9-.3-2.9-.3-8.2 0-14.9 6.7-14.9 14.9s6.7 14.9 14.9 14.9 14.9-6.7 14.9-14.9c0-2-.4-3.8-1.1-5.5L291 319zm-109.1 1.3l3.2-14.6c-.9-.2-1.9-.3-2.9-.3-8.2 0-14.9 6.7-14.9 14.9s6.7 14.9 14.9 14.9 14.9-6.7 14.9-14.9c0-2-.4-3.8-1.1-5.5l-14.1 5.5zm45-244.8c3.4-3.4 7.4-7.2 11.9-10.9-4.5 3.8-8.5 7.5-11.9 10.9zm-9.7 10.4c.8-1 1.9-2.1 3.1-3.5-1.2 1.4-2.3 2.5-3.1 3.5zm3.1-3.5c1.8-2 4-4.3 6.6-6.9-2.6 2.6-4.8 4.9-6.6 6.9z"/><path class="st0" d="M257.5 50.8zM278 39c5-2.7 9.5-4.8 12.7-6.3-3.2 1.4-7.7 3.6-12.7 6.3zm14.9-7.4c1.9-.9 3.1-1.3 3.2-1.3-.1 0-1.3.5-3.2 1.3z"/><path class="st1" d="M498.5 12.8c-147.3 5.6-174.9 66.8-175.1 64.3-1.4-21.5 10.1-57.2 18.5-62 .1 0 .4-.1 0-.1-9.4 1-57.3 17.6-91.2 39.4-33.9 21.8-52.8 55.9-53 58.4-.4 5.4-.8-31.1 1.5-33.4 1.2-1.2-35.2 13.9-66.8 33-29.1 17.6-53.6 39.4-54.5 40.7C76.1 155.6 108 254.6 112 267c.3.8 1 1.3 1.8 1.3h7.6c1.5 0 2.7-1 2.9-2.5 1.6-10.6 8-51.7 10-52.1 2.3-.4 23.9-17.5 77.9-17.1 53.9.4 138.3 20.8 138.3 20.8s-3.7 45.2-2 47.8c2 3.1 10.6 2 13.4.4 0 0 60.3-111.3 72.6-114.8 12.3-3.5-51.8 5.8-56.4 9.6-4.2 3.5-8-62.9 120.4-147.6zM98 160l8.5 53.4-18.9-58s44.5-34.1 53.6-38.3L98 160zm158.7-94.6C244.8 73.6 236 80 229 85.6s-12.4 10.1-17.4 14.8c0 0 1-1.3 3-3.5 1-1.1 2.1-2.4 3.5-3.9 2.1-2.2 4.6-4.9 7.4-7.8 3.8-3.8 8.3-8.1 13.4-12.3 3.8-3.2 7.8-6.4 12.1-9.4 2.9-2.1 6-4.2 9.1-6.1 3.1-2 6.3-3.9 9.4-5.8 4.7-2.8 9.3-5.3 13.6-7.6 5.7-3 10.7-5.5 14.3-7.2.9-.4 1.7-.8 2.5-1.1 2.2-1 3.5-1.5 3.6-1.4 0 0 0 .1-.3.2-1.7 1.1-3.5 2.3-5.4 3.5m38.1 34.7s27.4-27.2 64.5-39.6c39.1-13 59.5-15 77.8-15.8-14.7 1.4-48.3 10.3-77.2 21-28.8 10.7-53.3 27.3-65.1 34.4z"/><path d="M365 309.3c3.4 14.9 19.2 71.8-20.2 103.1-26.3 20.9-48.7 27.2-74.9 35.1-1.5-5.5-9.9-9-23.3-6.9-11.8 1.9-20.6 6.8-19.4 12s11.7 8.2 23.6 6.8c4.1-.5 10.8-2.2 10.8-2.2 33.3-9.6 58.7-13.6 93.1-41.2 10.3-8.3 24-29.6 23.9-29.3 16-1.5 30.7-17.1 28.8-41.5-2.5-30-28.9-39.6-42.4-35.9z" fill="#f15a29"/></g></svg>