<svg version="1.1" id="Layer_1" xmlns="http://www.w3.org/2000/svg" x="0" y="0" viewBox="0 0 512 120" xml:space="preserve"><style>.st0{fill:#fff}</style><path class="st0" d="M80.2 15.3c6.4 2.2 9.7 1.2 10-3.2h2.9L95 42.7l-2.9.3c-4.7-18.9-16.3-28.4-34.8-28.4-10.3.1-18.9 5.2-25.6 15.4-6.5 9.7-9.7 21.6-9.7 35.5 0 32.6 12.4 48.9 37.2 48.9 17 0 29-6.8 36-20.5l2.7.8c-6.8 15.8-20 23.6-39.7 23.6-11.7 0-21.9-2.3-30.4-7-8.2-4.5-14.8-10.9-19.7-19.2C3.4 84 1 75.2 1 65.5c0-10 2.3-19.2 6.8-27.4s11.2-14.8 20-19.8 18.8-7.5 30-7.5c6-.1 13.4 1.5 22.4 4.5zm422.3 43.5c5.4 5.8 8.2 13.4 8.5 22.9 0 9.1-3.1 16.9-9.2 23.2-6.1 6.3-13.4 9.5-21.8 9.5s-15.5-3-21.4-9.1c-5.8-6-8.6-13.5-8.6-22.4 0-9.1 2.9-16.9 8.7-23.2 5.8-6.4 13.3-9.6 22.5-9.6 8.9 0 16 2.9 21.3 8.7zm-32.2 3c-2.8 5.8-4.2 12.7-4.2 20.9 0 8 1.4 14.8 4.2 20.4 2.8 5.5 6.2 8.2 10.2 8.2 4.2 0 7.7-2.9 10.5-8.6 2.9-5.7 4.4-12.7 4.4-21 0-8.6-1.2-15.5-3.7-20.8-2.5-5.3-6-7.9-10.5-7.9-4.4 0-8 2.9-10.9 8.8zm-210-12.3h8.3v2.9h-8.3z"/><path class="st0" d="M271.5 103.6c-2.8 1.2-4.7 2-5.7 2.3-3.2.9-5.7.5-7.3-1.3-1.7-1.9-2.5-5.1-2.5-9.7V27h-2c-1.7 5.5-4.6 10.5-8.7 15-4 4.5-8.3 7.3-12.8 8.5v1.9h8.6v43.8c0 14.7 8.2 19.2 24.7 13.5 3-1.1 5.2-2 6.7-2.9l-1-3.2zm-127.3.3c-2.1 2-4.6 3-7.5 3-3.6 0-6.5-1.3-8.8-4-2.2-2.8-3.3-5.9-3.3-9.6v-44h-22.8v2.1c5.6.1 8.4 4.4 8.4 13v26.9c0 6.7 1.8 11.9 5.4 15.5 3.7 3.6 8.7 5.4 14.9 5.2 5.3 0 9.9-1.5 13.7-4.3v-3.8zm19.1-6.9V49.4l-23.3.1v2.1c5.7.1 8.5 4.4 8.5 13l-.1 28.9v10.6c.2 4.3.8 7.1 1.9 8.2l21.5-3.7v-2.1c-5.6.8-8.5-2.3-8.5-9.5zm240.9.1V68.2c0-3.8-1.6-8.2-1.6-8.2-.8-1.9-1.9-3.7-3.5-5.2-3.4-3.5-8.2-5.3-14.2-5.3-5 0-9.3 1.4-12.9 4.1v4.2c2-2.1 4.2-3.1 6.7-3.1 3 0 5.6 1.3 7.7 4 2.2 2.6 3.3 5.8 3.3 9.6v28.9c0 8.5-2.8 12.8-8.6 13v2.1h31.6v-2.1c-5.7-.2-8.5-4.6-8.5-13.1zm-36.5 0V57.2c-.2-4.2-.8-6.8-1.8-7.7l-21.4 3.4V55c5.6-1 8.5 2 8.5 9v33.1c0 8.5-2.8 12.8-8.5 13v2.1h31.8v-2.1c-5.7-.1-8.6-4.5-8.6-13zm73 0V70.2c-.1-6.9-1.9-12.1-5.2-15.5-3.5-3.5-8.2-5.3-14.3-5.3-6.4 0-11.7 2.3-15.7 6.8.6 1.1 1 2.2 1.4 3.2.2-.3.4-.5.6-.8 2.3-2.7 4.8-4.1 7.7-4.1 3 0 5.7 1.4 7.9 4.1 2 2.6 3 5.7 3 9.5V97c0 8.5-2.9 12.8-8.6 13v2.1h31.8V110c-5.8 0-8.6-4.4-8.6-12.9zM210.9 49.8c2.6 1.1 4.3 1.5 5.2 1.2.9-.2 1.3-.9 1.2-1.8h2.1l1.9 18.3h-1.9c-.8-5.1-2.8-9.1-6.2-12.1-1.3-1.3-3.1-2.3-5.3-3-1.8-.7-3.9-1.1-6.1-1-3.1 0-5.7.9-7.9 2.7-1.7 1.4-2.7 3.2-2.9 5.6-.2 2.2.6 4.1 2.2 5.8 1.4 1.3 5.1 3.1 11 5.4 5.6 1.9 9.5 3.5 11.8 4.9 6.3 3.9 9.3 9.5 9 16.8-.3 5.6-2.4 10.5-6.4 14.6-4.1 4-9.7 5.7-17 4.9-2.8-.3-5.3-.9-7.5-1.6-4.9-1.8-7.9-2.5-8.9-2.1-1 .4-1.5 1.3-1.6 2.9h-2l-.4-19.5h1.9c.3 2.2.8 4 1.4 5.7.6 1.5 1.9 3.1 3.7 4.8 3.8 3.5 8.3 5.7 13.5 6.5 4.6.6 8.3.1 11.1-1.8 2.6-1.7 3.9-3.9 4.1-6.7.4-2.7-.2-5.1-1.8-7.1-1.1-1.4-3-2.6-5.5-3.7-3.4-1.5-6.4-2.6-9.2-3.5-3.5-1.3-6.1-2.3-7.8-3-7.3-3.7-10.9-9.3-10.8-17 .2-5.1 1.9-9.3 5.2-12.7 3.6-3.4 8.4-5.1 14.6-5.1 3.2-.1 6.2.5 9.3 1.6zm117 6.9c5.4 5.8 8.2 13.4 8.5 22.9 0 9.1-3.1 16.9-9.2 23.2-6.1 6.3-13.4 9.5-21.8 9.5s-15.5-3-21.4-9.1c-5.8-6-8.6-13.5-8.6-22.4 0-9.1 2.9-16.9 8.7-23.2 5.8-6.4 13.3-9.6 22.5-9.6 8.8 0 15.9 2.9 21.3 8.7zm-32.3 3c-2.8 5.8-4.2 12.7-4.2 20.9 0 8 1.4 14.8 4.2 20.4 2.8 5.5 6.2 8.2 10.2 8.2 4.2 0 7.7-2.9 10.5-8.6 2.9-5.7 4.4-12.7 4.4-21 0-8.6-1.2-15.5-3.7-20.8-2.5-5.3-6-7.9-10.5-7.9-4.4.1-8 3-10.9 8.8z"/><path d="M334.9 69.6c.8 3.4 4.4 16.6-4.6 23.8-6.1 4.8-11.2 6.3-17.3 8.1-.3-1.3-2.3-2.1-5.4-1.6-2.7.4-4.7 1.6-4.5 2.8.3 1.2 2.7 1.9 5.4 1.6.9-.1 2.5-.5 2.5-.5 7.7-2.2 13.5-3.1 21.5-9.5 2.4-1.9 5.5-6.8 5.5-6.8 3.7-.3 7.1-3.9 6.6-9.6-.5-6.9-6.6-9.1-9.7-8.3z" fill="#f15a29"/></svg>